<?xml version="1.0" encoding="UTF-8"?><svg id="a" xmlns="http://www.w3.org/2000/svg" width="59.9" height="60" viewBox="0 0 59.9 60"><path d="m10.67,55.91v-31.87H0v-2.15l10.67-1.51v-3.66c0-3.3.94-6.23,2.84-8.79,1.89-2.56,4.28-4.52,7.16-5.89,2.89-1.36,5.77-2.05,8.65-2.05,3.27,0,5.51.19,6.73.57v4.52c-.64-.29-1.67-.53-3.08-.72-1.41-.19-3.08-.29-5-.29-3.14,0-5.67.75-7.6,2.26s-2.88,4.3-2.88,8.36v5.67h15.29v3.66h-15.29v31.94l11.25.57v2.37H1.06v-2.37l9.62-.64Z" fill="#7f3f98"/><path d="m30.33,59.04c-3.55-.64-6.19-1.47-7.93-2.5v-15.21h5.01l3.16,9.06c1.01,1.54,2.25,2.55,3.74,3.03,1.49.49,3.38.73,5.67.73,2.43,0,4.36-.72,5.8-2.15,1.44-1.43,2.16-3.48,2.16-6.14,0-3.12-2.56-6.19-7.69-9.22-4.53-2.71-7.96-4.9-10.27-6.57-2.31-1.66-4.19-3.62-5.63-5.87-1.44-2.25-2.16-4.94-2.16-8.06s.82-5.98,2.47-8.41c1.65-2.43,3.86-4.3,6.63-5.61,2.77-1.31,5.73-1.96,8.89-1.96,2.43,0,5.4.26,8.93.77,3.52.51,5.98,1.15,7.35,1.92v12.44h-5.56l-3.09-7.91c-.55-.51-1.52-.93-2.92-1.27-1.4-.33-2.58-.5-3.54-.5-2.24,0-4.11.53-5.6,1.57-1.49,1.05-2.23,2.57-2.23,4.57s.53,3.78,1.58,5.34c1.05,1.56,2.48,3,4.29,4.3,1.81,1.3,4.41,2.96,7.8,4.95,4.07,2.36,7.21,4.84,9.41,7.45,2.2,2.61,3.3,5.71,3.3,9.29s-.89,6.58-2.68,9.14c-1.79,2.56-4.19,4.49-7.21,5.8-3.02,1.31-6.39,1.96-10.1,1.96-2.84,0-6.03-.32-9.58-.96Z" fill="#f26522"/></svg>